<svg viewBox="0 0 480 360" xmlns="http://www.w3.org/2000/svg"><defs><linearGradient x1="19.496%" x2="77.479%" y1="71.822%" y2="16.69%"><stop offset="0%" stop-color="#6366f1"/><stop offset="100%" stop-color="#6366f1" stop-opacity="0"/></linearGradient></defs><path d="M0 198.78c0 41.458 14.945 79.236 39.539 107.786 28.214 32.765 69.128 53.365 114.734 53.434a148.4 148.4 0 0 0 56.495-11.036c9.051-3.699 19.182-3.274 27.948 1.107a75.8 75.8 0 0 0 33.957 8.01c5.023 0 9.942-.494 14.7-1.433 13.58-2.67 25.94-8.99 36.09-17.94 6.378-5.627 14.547-8.456 22.897-8.446h.142c27.589 0 53.215-8.732 74.492-23.696 19.021-13.36 34.554-31.696 44.904-53.224C474.92 234.58 480 213.388 480 190.958c0-76.93-59.774-139.305-133.498-139.305-7.516 0-14.88.663-22.063 1.899C305.418 21.42 271.355 0 232.499 0a103.65 103.65 0 0 0-45.88 10.661c-13.24 6.487-25.011 15.705-34.64 26.939-32.698.544-62.931 11.69-87.676 30.291C25.351 97.155 0 144.882 0 198.781z" opacity=".2"/><defs><linearGradient id="b" x1="30.113%" x2="30.113%" y1="0%" y2="100%"><stop offset="0%" stop-opacity="0"/><stop offset="100%"/></linearGradient></defs><path fill="#FF4842" d="M293.006 206.192c-2.248 2.672-4.676 2.628-6.123 2.251l.054-1.384s5.979-2.733 5.827-2.159c-.057.215.057.733.242 1.292m16.387 3.025c-3.818 2.206-6.058-.38-6.578-1.112.32-.84.801-2.204.703-2.592-.144-.577 5.827 2.155 5.827 2.155zm-4.09-22.013s3.632-2.093 4.425-1.151-4.425 1.151-4.425 1.151m2.194 1.151s-.598.299.721.681-.721-.681-.721-.681m-21.965-5.756c-.123.036 3.022 2.123 5.862.395-.012 0-5.154-.61-5.862-.395m5.707 3.992s-.861 1.692-2.625 1.943 2.625-1.943 2.625-1.943m11.546 3.671s4.138 6.578 3.346 8.129c-.793 1.552-3.346-8.129-3.346-8.129m-8.165 26.154c0 .368 0 .712-.036.996-.107 1.33-3.381.828-3.381.828-2.99.416-4.066-1.019-4.422-2.392a5.4 5.4 0 0 1-.164-1.363 6 6 0 0 1 .054-.819v-.272a2 2 0 0 1 1.859.379c1.331 1.08 3.095.252 3.095.252s1.294.107 1.793.538c.281.242.745-.341 1.098-.897.021.359.054 1.007.074 1.701.024.356.03.714.03 1.049" opacity=".05"/><path fill="#FF4842" d="M289.37 216.339s-.897.879-2.589-.479a5.4 5.4 0 0 1-.164-1.363c.864.658 2.466 1.842 2.753 1.842m5.25.077a.67.67 0 0 1-.519.132.67.67 0 0 1-.452-.287q.524-.4.956-.897c.009.359.015.717.015 1.052m7.017.616c0 .371 0 .715.033.996.108 1.333 3.382.828 3.382.828 2.989.419 4.066-1.017 4.421-2.392a5.7 5.7 0 0 0 .111-2.182v-.272a2.02 2.02 0 0 0-1.862.379c-1.331 1.08-3.092.251-3.092.251s-1.294.111-1.794.542c-.281.242-.744-.341-1.094-.897a61 61 0 0 0-.078 1.701c-.024.35-.03.708-.027 1.046" opacity=".05"/><path fill="#FF4842" d="M306.887 216.949s.897.879 2.587-.479c.112-.444.169-.901.167-1.36-.867.655-2.47 1.839-2.754 1.839m-5.25.083a.67.67 0 0 0 .969-.155 6.4 6.4 0 0 1-.957-.897c-.009.356-.014.714-.012 1.052m17.977-110.763q.094-.207.18-.41c.057-.134.077-.209.11-.317q-.164.356-.29.727" opacity=".05"/><path fill="#4f46e5" d="M157.592 279.461a4.1 4.1 0 0 1-.917-3.131l13.196-107.979 1.094-8.97a4.14 4.14 0 0 1 4.078-3.635l38.654-.257a4.135 4.135 0 0 0 4.108-4.249l-.015-.409a4.14 4.14 0 0 1 4.135-4.279h40.619a4.134 4.134 0 0 1 4.098 4.682 4.137 4.137 0 0 0 3.995 4.682l39.01.996a4.13 4.13 0 0 1 3.97 4.831l-19.502 113.909-.368 2.152a4 4 0 0 1-.598 1.543z"/><path fill="#FFF" d="m275.315 123.676 18.793 12.983-44.068 63.784-18.792-12.983z"/><path fill="#FFC107" d="m276.669 126.698 13.24 9.204-9.203 13.241-13.241-9.204z"/><path fill="#FFC107" d="m266.296 142.655 13.285 9.178-9.178 13.285-13.285-9.178z" opacity=".5"/><path fill="#FFC107" d="m255.212 158.694 13.285 9.179-9.178 13.285-13.286-9.179z" opacity=".3"/><path fill="#FFF" d="m248.763 119.681 21.925 6.407-21.664 74.133-21.925-6.407z"/><path fill="#FF4842" d="m251.642 121.821 15.5 4.53-4.53 15.499-15.5-4.53z"/><path fill="#FF4842" d="m246.173 140.533 15.5 4.53-4.53 15.499-15.5-4.53z" opacity=".5"/><path fill="#FF4842" d="m240.705 159.242 15.5 4.53-4.53 15.499-15.5-4.53z" opacity=".3"/><path fill="#FFF" d="m233.233 120.85 22.768 1.832-6.194 76.985-22.768-1.832z"/><path fill="#1890FF" d="m236.474 122.364 16.096 1.295-1.295 16.096-16.096-1.295z"/><path fill="#1890FF" d="m234.908 141.792 16.095 1.295-1.295 16.096-16.095-1.295z" opacity=".5"/><path fill="#1890FF" d="m233.346 161.225 16.095 1.295-1.295 16.096-16.095-1.295z" opacity=".3"/><path fill="#FFF" d="m222.99 123.945 22.818-1.04 3.517 77.153-22.818 1.04z"/><path fill="#6366f1" d="m226.392 125.036 16.13-.735.736 16.13-16.13.736z"/><path fill="#6366f1" d="m227.912 143.893 16.148-.807.807 16.147-16.148.807z" opacity=".5"/><path fill="#6366f1" d="m228.166 163.985 16.13-.735.736 16.13-16.13.736z" opacity=".3"/><path fill="#F4F6F8" d="m232.679 225.726-20.294 7.851-29.661 11.466c-1.121-2.093-2.771-4.921-4.813-8.297-7.026-11.642-18.65-29.75-29.001-45.665-11.66-17.938-21.696-33.075-21.696-33.075l7.265-2.093 59.346-17.23z"/><path d="m232.679 225.726-20.294 7.851a152.5 152.5 0 0 1-34.484 3.169c-7.026-11.642-18.65-29.75-29-45.665l-14.42-35.18 59.343-17.218z" opacity=".1"/><path fill="#6366f1" d="M247.777 220.841s-31.526 18.65-78.596 14.432l-37.525-91.486 17.984-3.091 62.168-10.677 35.279 89.043z"/><path fill="#FF4842" d="M247.075 219.074c-7.424.365-16.013.329-24.654-.702-9.351-1.101-18.757-3.367-26.82-7.523-6.742-3.471-12.506-7.247-17.532-11.776-13.074-11.759-21.164-28.579-28.429-58.365l62.168-10.677z" opacity=".1"/><path fill="#FFF" d="M270.203 213.959s-23.239 4.55-46.894 1.749c-9.351-1.1-18.757-3.367-26.82-7.522-6.742-3.471-12.503-7.247-17.532-11.777-16.181-14.557-24.725-36.866-33.536-81.918 0 0 38.633 9.325 76.836-11.101-.012.015 12.865 80.373 47.946 110.569"/><path fill="#6366f1" d="M165.405 131.03s31.416-1.776 40.187-8.548l1.331 4.276s-20.758 9.157-41.518 9.268zm0 21.107s30.417-1.665 53.399-12.766l.777 1.776s-18.237 10.647-54.176 13.433zm2.448 8.225s30.418-1.665 53.397-12.766l.777 1.776s-18.237 10.643-54.174 13.433zm2.446 8.237s30.417-1.666 53.399-12.766l.774 1.775s-18.237 10.647-54.173 13.433zm2.449 8.236s30.417-1.665 53.396-12.766l.777 1.776s-18.237 10.647-54.173 13.433zm2.445 8.24s30.417-1.665 53.399-12.766l.774 1.776s-18.237 10.643-54.173 13.433z" opacity=".3"/><path fill="#6366f1" d="M389.069 287.344s-12.641-.762-11.152 8.097c0 0-.299 1.563 1.124 2.275 0 0 .021-.658 1.295-.434.454.077.916.099 1.375.066a2.83 2.83 0 0 0 1.677-.694c.468-.409 3.555-1.468 4.936-7.274 0 0 1.023-1.267.981-1.593l-2.132.897s.73 1.54.156 2.816c0 0-.069-2.759-.479-2.691-.083 0-1.109.533-1.109.533s1.253 2.69.299 4.628c0 0 .359-3.304-.699-4.434l-1.495.876s1.465 2.768.472 5.029c0 0 .254-3.465-.789-4.817l-1.361 1.062s1.379 2.729.539 4.604c0 0-.111-4.036-.835-4.341 0 0-1.195 1.049-1.369 1.494 0 0 .942 1.98.356 3.026 0 0-.359-2.691-.652-2.691 0 0-1.196 1.794-1.309 2.99 0 0 .051-1.818 1.022-3.172a3.6 3.6 0 0 0-1.818.942s.186-1.262 2.111-1.37c0 0 .981-1.351 1.241-1.435 0 0-1.914-.158-3.074.356 0 0 1.023-1.196 3.427-.649l1.342-1.094s-2.52-.347-3.588.036c0 0 1.229-1.052 3.95-.299l1.462-.873s-2.147-.463-3.426-.299c0 0 1.348-.729 3.856.06l1.044-.47s-1.573-.299-2.033-.358c-.461-.06-.488-.174-.488-.174a5.43 5.43 0 0 1 2.957.329s2.222-.813 2.186-.954"/><ellipse cx="380.363" cy="298.487" fill="#6366f1" opacity=".1" rx="8.945" ry="1.513"/><path fill="#6366f1" d="M394.956 258.102s-7.125-.43-6.279 4.565a1.22 1.22 0 0 0 .631 1.283s.015-.371.733-.245q.384.063.774.036c.349-.023.681-.159.945-.389s2.003-.828 2.783-4.102c0 0 .577-.714.553-.897l-1.196.511s.41.87.087 1.591c0 0-.039-1.558-.269-1.522-.048 0-.625.299-.625.299s.706 1.495.173 2.61c0 0 .204-1.862-.394-2.502l-.846.496s.825 1.561.266 2.834c0 0 .143-1.955-.446-2.714l-.765.598s.774 1.539.299 2.595c0 0-.063-2.275-.469-2.446a4.8 4.8 0 0 0-.775.834s.532 1.118.204 1.707c0 0-.204-1.515-.368-1.521 0 0-.67 1.001-.739 1.689a3.7 3.7 0 0 1 .577-1.794 2 2 0 0 0-1.025.532s.104-.711 1.196-.771c0 0 .553-.763.699-.81 0 0-1.079-.09-1.734.2 0 0 .577-.67 1.932-.365l.759-.619s-1.423-.194-2.024.021c0 0 .694-.598 2.227-.161l.826-.494a7.5 7.5 0 0 0-1.935-.164s.763-.413 2.174.033l.598-.263s-.897-.177-1.148-.203c-.252-.027-.275-.099-.275-.099a3.1 3.1 0 0 1 1.668.185s1.232-.46 1.208-.538"/><ellipse cx="390.052" cy="264.383" fill="#6366f1" opacity=".1" rx="5.044" ry="1"/><path fill="#6366f1" d="M352.896 262.437s-8.604-.52-7.588 5.51a1.47 1.47 0 0 0 .763 1.549s0-.449.897-.299q.465.078.935.045a1.92 1.92 0 0 0 1.142-.473c.318-.279 2.419-.998 3.361-4.951 0 0 .697-.861.667-1.085l-1.468.622s.496 1.046.104 1.916c0 0-.048-1.877-.326-1.835-.056 0-.753.364-.753.364s.852 1.824.209 3.152c0 0 .245-2.249-.475-3.02l-1.023.598s.996 1.886.32 3.423c0 0 .174-2.359-.535-3.289l-.927.724s.939 1.857.365 3.133c0 0-.072-2.747-.565-2.954 0 0-.81.715-.933 1.008 0 0 .64 1.348.242 2.06 0 0-.245-1.83-.445-1.839 0 0-.804 1.214-.897 2.042.04-.768.28-1.512.697-2.159a2.43 2.43 0 0 0-1.235.643s.125-.858 1.435-.933c0 0 .667-.92.846-.974 0 0-1.303-.111-2.093.239 0 0 .694-.807 2.329-.44l.915-.747s-1.713-.233-2.442.024c0 0 .837-.715 2.69-.191l.996-.598s-1.462-.314-2.335-.201c0 0 .921-.496 2.625.042l.711-.32s-1.07-.209-1.384-.242-.329-.119-.329-.119a3.7 3.7 0 0 1 2.012.221s1.519-.553 1.492-.646"/><ellipse cx="346.97" cy="270.022" fill="#6366f1" opacity=".1" rx="6.09" ry="1.028"/><rect width="51.026" height="91.312" x="303.926" y="69.211" fill="#FFF" rx="4.737" transform="rotate(-71.99 329.44 114.867)"/><circle cx="303.613" cy="103.507" r="9.376" fill="#6366f1" opacity=".2"/><path fill="#6366f1" d="m326.046 101.82.794-2.443 38.847 12.63-.794 2.442zm-2.026 6.226.794-2.443 19.79 6.434-.795 2.442zm-2.027 6.231.794-2.442 32.006 10.405-.794 2.443zm-2.024 6.229.794-2.443 38.847 12.63-.794 2.442z" opacity=".2"/><path fill="#6366f1" d="m344.401 140.914 1.536-4.723 10.75 3.495-1.535 4.723z" opacity=".5"/><rect width="50.3" height="78.305" x="291.549" y="174.486" fill="#FFF" rx="4" transform="rotate(-57.265 316.7 213.638)"/><path fill="#DFE3E8" d="m279.925 210.671 7.632-12.012 2.826 1.796-7.632 12.012zm9.034 2.433 16.76-26.38 2.592 1.646-16.76 26.38zm5.536 3.514 16.76-26.38 2.592 1.646-16.76 26.38zm5.535 3.52 16.76-26.38 2.592 1.646-16.76 26.38zm5.727 5.1 16.877-26.254 2.58 1.658-16.878 26.254z"/><path fill="#F4F6F8" d="m311.101 227.17 16.76-26.38 2.592 1.647-16.76 26.38zm5.536 3.515 16.76-26.38 2.592 1.646-16.76 26.38z"/><path fill="#DFE3E8" d="m339.879 215.7 4.34-6.831 6.831 4.34-4.34 6.83z"/><path fill="#6366f1" d="m269.277 168.76-45.767.493a3.127 3.127 0 0 0-3.094 3.125v3.782a3.127 3.127 0 0 1-3.05 3.124l-33.024.792a3.124 3.124 0 0 1-3.095-2.308l-1.551-5.701a3.124 3.124 0 0 0-3.053-2.308l-44.113.475a3.125 3.125 0 0 0-3.05 3.648l17.747 104.449a3.13 3.13 0 0 0 3.071 2.604l139.363.598a3.13 3.13 0 0 0 3.082-3.714l-20.366-106.521a3.125 3.125 0 0 0-3.1-2.538"/><path fill="#4f46e5" d="m269.277 168.76-45.767.493a3.127 3.127 0 0 0-3.094 3.125v3.782a3.127 3.127 0 0 1-3.05 3.124l-33.024.792a3.124 3.124 0 0 1-3.095-2.308l-1.551-5.701a3.124 3.124 0 0 0-3.053-2.308l-44.113.475a3.125 3.125 0 0 0-3.05 3.648l17.747 104.449a3.13 3.13 0 0 0 3.071 2.604l139.363.598a3.13 3.13 0 0 0 3.082-3.714l-20.366-106.521a3.125 3.125 0 0 0-3.1-2.538" opacity=".243"/><path fill="url(#b)" d="m269.277 168.76-45.767.493a3.127 3.127 0 0 0-3.094 3.125v3.782a3.127 3.127 0 0 1-3.05 3.124l-33.024.792a3.124 3.124 0 0 1-3.095-2.308l-1.551-5.701a3.124 3.124 0 0 0-3.053-2.308l-44.113.475a3.125 3.125 0 0 0-3.05 3.648l17.747 104.449a3.13 3.13 0 0 0 3.071 2.604l139.363.598a3.13 3.13 0 0 0 3.082-3.714l-20.366-106.521a3.125 3.125 0 0 0-3.1-2.538" opacity=".32"/><ellipse cx="119.593" cy="258.664" fill="#6366f1" opacity=".1" rx="4.846" ry="1"/><ellipse cx="101.03" cy="260.545" fill="#6366f1" opacity=".1" rx="4.846" ry="1"/><ellipse cx="108.459" cy="265.905" fill="#6366f1" opacity=".1" rx="3.444" ry="1"/><ellipse cx="89.193" cy="265.433" fill="#6366f1" opacity=".1" rx="3.444" ry="1"/><path fill="#6366f1" d="M100.925 260.398s6.796-22.279-1.064-31.204c-5.881-6.676-12.557-5.877-15.547-5.052a5.53 5.53 0 0 0-3.564 2.963c-1.046 2.254-.858 5.913 6.521 10.186 12.35 7.151 13.119 16.96 13.119 16.96z"/><path stroke="#4f46e5" stroke-linecap="round" stroke-width=".5" d="M85.382 227.302s20.031 6.278 15.546 33.096m-3.845-30.851s-2.76 1.86-1.88 4.655m-7.813-2.999s1.687-1.716 3.741-.768m4.179 9.397s2.963-1.495 3.728.379m3.6 2.751s-2.224-.176-2.263.897"/><path fill="#6366f1" d="M101.2 260.575s-7.961-16.193-10.147-15.846c-1.037.17-1.516 1.196-1.734 2.218a6.5 6.5 0 0 0 .434 3.941c1.13 2.601 4.165 7.519 11.447 9.687"/><path stroke="#4f46e5" stroke-linecap="round" stroke-width=".5" d="M91.113 247.808s8.353 12.115 9.968 12.647m-10.737-10.754h1.949m.387 4.431 3.058.131m-1.196-3.677-.332 1.593m3.582 3.253-.06 1.447"/><path fill="#6366f1" d="M100.964 260.575s7.959-16.193 10.144-15.846c1.041.17 1.519 1.196 1.734 2.218a6.5 6.5 0 0 1-.433 3.941c-1.13 2.601-4.168 7.519-11.445 9.687"/><path stroke="#4f46e5" stroke-linecap="round" stroke-width=".5" d="M111.051 247.808s-8.371 12.115-9.97 12.647m10.739-10.754h-1.949m-.386 4.431-3.059.131m1.196-3.677.332 1.593m-3.582 3.253.06 1.447"/><path fill="#6366f1" d="M87.295 264.357a1.4 1.4 0 0 1-.452-.685.6.6 0 0 1 .317-.697c.3-.11.598.09.837.299.24.21.512.431.81.38a1.24 1.24 0 0 1-.382-1.16.47.47 0 0 1 .105-.236c.161-.174.454-.099.648.039.598.43.787 1.264.79 2.018q.045-.416 0-.831a.85.85 0 0 1 .334-.727.94.94 0 0 1 .476-.114 1 1 0 0 1 .774.222.77.77 0 0 1-.03.947c-.229.257-.5.474-.801.64a1.8 1.8 0 0 0-.571.547.4.4 0 0 0-.042.096h-1.74a4.8 4.8 0 0 1-1.073-.738m30.331-6.524a1.36 1.36 0 0 1-.452-.682.6.6 0 0 1 .314-.696c.299-.111.598.089.837.299.239.209.509.436.817.391a1.24 1.24 0 0 1-.386-1.157.47.47 0 0 1 .107-.236c.162-.173.455-.099.649.036.613.433.787 1.268.79 2.021a4 4 0 0 0 0-.834.85.85 0 0 1 .299-.736.96.96 0 0 1 .475-.11 1 1 0 0 1 .774.218.77.77 0 0 1-.033.951 3 3 0 0 1-.798.64 1.8 1.8 0 0 0-.571.544.5.5 0 0 0-.042.098h-1.701a4.8 4.8 0 0 1-1.079-.747m-10.108 6.524a1.4 1.4 0 0 1-.455-.685.6.6 0 0 1 .317-.697c.299-.11.598.09.837.299.239.21.505.437.816.395a1.25 1.25 0 0 1-.385-1.16.47.47 0 0 1 .107-.236c.162-.174.455-.099.649.039.613.43.783 1.264.789 2.018q.045-.416 0-.832a.86.86 0 0 1 .314-.735.93.93 0 0 1 .476-.114 1 1 0 0 1 .774.222.764.764 0 0 1-.033.947 3 3 0 0 1-.798.64 1.8 1.8 0 0 0-.571.547.4.4 0 0 0-.042.096h-1.734c-.385-.2-.742-.45-1.061-.744"/><circle cx="84.467" cy="87.003" r="6.467" fill="#6366f1" opacity=".1"/><circle cx="395.425" cy="138.681" r="6.467" fill="#6366f1" opacity=".1"/><circle cx="279.178" cy="66.467" r="6.467" fill="#6366f1" opacity=".1"/><circle cx="97.4" cy="122.68" r="10.838" fill="#6366f1" opacity=".1"/><path fill="#4f46e5" d="M206.029 209.911c-7.975 0-14.44 6.465-14.44 14.44s6.465 14.44 14.44 14.44 14.44-6.465 14.44-14.44-6.465-14.44-14.44-14.44"/><path fill="#6366f1" d="M206.029 211.59c7.047 0 12.761 5.714 12.761 12.761 0 7.048-5.714 12.761-12.761 12.761-7.048 0-12.761-5.713-12.761-12.761.006-7.045 5.716-12.754 12.761-12.761" opacity=".72"/><path fill="#4f46e5" d="m200.058 225.406-.699-.681a.72.72 0 0 1 0-1.065l6.127-5.984a.75.75 0 0 1 .546-.231c.206 0 .404.083.545.231l6.127 5.978a.733.733 0 0 1 0 1.065l-.699.682a.77.77 0 0 1-1.091 0l-3.622-3.727v8.843a.73.73 0 0 1-.219.523.76.76 0 0 1-.534.217h-1.009a.75.75 0 0 1-.759-.74v-8.832l-3.622 3.726a.77.77 0 0 1-1.091-.005"/></svg>